<svg width="222" height="21" viewBox="0 0 222 21" fill="none" xmlns="http://www.w3.org/2000/svg">
<path d="M47.0578 19.5481L52.395 19.5238L46.0109 1.51016H39.8858L33.4747 19.5238H38.8227L42.951 5.8085L47.0578 19.5481ZM85.554 19.5481V1.53445H90.5998V9.10579L96.026 1.53445H101.941L95.1167 10.2606L102.132 19.5508H95.8236L90.6025 11.8094V19.5508L85.554 19.5481ZM66.229 1.53445H71.0994V12.3464L78.0609 1.53445H83.0095V19.5481H78.1526V8.75501L71.1722 19.5481H66.2317L66.229 1.53445ZM54.3566 19.5481V5.85977H50.4037V1.54254H63.3742V5.85977H59.3997V19.5481H54.3566ZM24.1549 5.83279L22.0961 12.4705H26.211L24.1549 5.83279ZM14.6786 19.5481L21.0816 1.53445H27.2093L33.5988 19.5481H28.1861L27.2093 16.4424H21.0816L20.0886 19.5481H14.6786ZM5.03498 15.9459H7.19359C8.02196 15.9459 8.64796 15.8002 9.08238 15.5142C9.5168 15.2282 9.72727 14.729 9.72727 14.0409C9.72727 13.3529 9.51681 12.8861 9.09318 12.6054C8.66956 12.3248 8.04895 12.1683 7.2044 12.1683H5.04578L5.03498 15.9459ZM0 19.5481V1.53445H13.3132V5.85168H5.03498V8.54994H7.69006C8.66395 8.55583 9.63511 8.65339 10.5907 8.84135C11.6603 9.06015 12.6467 9.57535 13.4374 10.3281C14.3368 11.1286 14.7811 12.3374 14.7703 13.9546C14.7703 16.3326 13.9959 17.8617 12.4471 18.5416C10.9483 19.1995 9.32961 19.5403 7.69277 19.5427L0 19.5481Z" fill="white"/>
<path fill-rule="evenodd" clip-rule="evenodd" d="M120.155 0V20.5979H222V0H120.155ZM142.429 16.542H138.816V7.13155H134.545V16.542H130.929V4.17236H142.432L142.429 16.542ZM161.587 16.2574L158.643 6.81856L155.691 16.2419H151.863L156.45 3.86713H160.829L165.416 16.2419L161.587 16.2574ZM193.476 12.8042C193.189 13.5787 192.747 14.2921 192.175 14.9046C191.572 15.5399 190.828 16.0375 189.998 16.3609C187.964 17.1106 185.705 17.065 183.705 16.2342C182.733 15.8277 181.886 15.1891 181.245 14.3795C180.619 13.5782 180.245 12.6226 180.165 11.6247H178.781V16.5394H175.16V4.17236H178.77V8.90862H180.173C180.273 8.22097 180.494 7.55453 180.826 6.93755C181.163 6.31958 181.621 5.76975 182.176 5.31827C182.779 4.82663 183.477 4.45157 184.229 4.21375C185.116 3.93558 186.045 3.80095 186.979 3.81539C188.313 3.77877 189.633 4.09657 190.791 4.73367C191.795 5.30935 192.606 6.14745 193.131 7.14966C193.644 8.14315 193.907 9.23814 193.9 10.3468C193.904 11.1825 193.762 12.013 193.481 12.8042H193.476ZM211.22 8.26453C210.324 7.27641 209.31 6.77975 208.155 6.77975C207.546 6.77052 206.948 6.92947 206.431 7.23761C205.921 7.54673 205.515 7.99047 205.262 8.51544C204.986 9.08195 204.848 9.70101 204.858 10.3261C204.846 10.9174 204.982 11.5029 205.254 12.0334C205.511 12.5276 205.909 12.942 206.401 13.2284C206.933 13.5264 207.541 13.6776 208.158 13.6656C209.286 13.6656 210.316 13.2232 211.223 12.3205V15.8384C210.184 16.4784 208.966 16.7996 207.731 16.7593C206.829 16.7657 205.934 16.6058 205.095 16.2885C204.296 15.9919 203.573 15.5346 202.974 14.9474C202.375 14.3602 201.914 13.6567 201.622 12.8844C201.288 12.033 201.123 11.1295 201.134 10.2201C201.119 9.28477 201.296 8.35573 201.655 7.48593C201.966 6.72119 202.441 6.02716 203.048 5.44816C203.655 4.86916 204.382 4.41791 205.181 4.12321C205.98 3.83201 206.828 3.68469 207.683 3.68864C208.305 3.68819 208.924 3.76912 209.523 3.92921C210.131 4.0828 210.707 4.33568 211.226 4.67676L211.22 8.26453Z" fill="white"/>
<path fill-rule="evenodd" clip-rule="evenodd" d="M188.487 7.50118C188 7.22107 187.449 7.07364 186.888 7.07364C186.327 7.07364 185.775 7.22107 185.289 7.50118C184.785 7.80223 184.378 8.24138 184.115 8.76667C183.81 9.3974 183.662 10.0927 183.684 10.7931C183.658 11.4996 183.809 12.2014 184.121 12.8357C184.379 13.3608 184.785 13.7989 185.289 14.0957C185.774 14.3806 186.327 14.5289 186.889 14.5248C187.316 14.5305 187.739 14.4454 188.13 14.2751C188.521 14.1049 188.872 13.8533 189.158 13.5372C189.782 12.8869 190.092 11.9776 190.092 10.7904C190.11 10.0891 189.961 9.39365 189.658 8.76128C189.395 8.23877 188.988 7.80176 188.487 7.50118Z" fill="white"/>
</svg>
